<svg width="320" height="320" viewBox="0 0 320 320" fill="none" xmlns="http://www.w3.org/2000/svg">
  <path d="M49 82C82 48 238 47 272 88C294 114 283 224 251 243C212 266 75 263 44 230C17 200 20 112 49 82Z" fill="#ED5F67" stroke="#F6F0E8" stroke-width="22" stroke-linejoin="round" paint-order="stroke fill"/>
  <path d="M49 82C82 48 238 47 272 88C294 114 283 224 251 243C212 266 75 263 44 230C17 200 20 112 49 82Z" stroke="#6B1738" stroke-width="5" stroke-linejoin="round"/>
  <text x="160" y="150" fill="#F6F0E8" text-anchor="middle" font-family="Instrument Sans, Arial, sans-serif" font-size="29" font-weight="700">EM</text>
  <text x="160" y="190" fill="#F6F0E8" text-anchor="middle" font-family="Instrument Sans, Arial, sans-serif" font-size="36" font-weight="800">PROCESSO</text>
  <path d="M80 213C112 226 199 226 235 208" stroke="#F4C95D" stroke-width="10" stroke-linecap="round"/>
  <circle cx="69" cy="111" r="10" fill="#F29AC2"/>
  <circle cx="252" cy="107" r="8" fill="#D9A6CF"/>
</svg>

